HIERARCHY
ROOT Hips
{
	OFFSET 0.000000 83.214638 0.000000
	CHANNELS 6 Xposition Yposition Zposition Xrotation Yrotation Zrotation
	JOINT Pelvis
	{
		OFFSET 0.000000 0.000000 0.000000
		CHANNELS 3 Xrotation Yrotation Zrotation
		JOINT LeftUpLeg
		{
			OFFSET 8.479700 -4.795502 -0.379100
			CHANNELS 3 Xrotation Yrotation Zrotation
			JOINT LeftLeg
			{
				OFFSET 0.024144 -32.555107 0.112900
				CHANNELS 3 Xrotation Yrotation Zrotation
				JOINT LeftFoot
				{
					OFFSET -0.024144 -32.638630 -3.012600
					CHANNELS 3 Xrotation Yrotation Zrotation
					JOINT LeftToeBase
					{
						OFFSET 0.970200 -13.225400 11.864200
						CHANNELS 3 Xrotation Yrotation Zrotation
						End Site
						{
							OFFSET 0.000000 12.319262 0.000000
						}
					}
					JOINT LFootTongue
					{
						OFFSET 1.142400 -1.059800 6.665200
						CHANNELS 3 Xrotation Yrotation Zrotation
						End Site
						{
							OFFSET 0.000000 12.319262 0.000000
						}
					}
				}
				JOINT LeftPantLeg
				{
					OFFSET 0.918482 -16.533964 -2.284700
					CHANNELS 3 Xrotation Yrotation Zrotation
					End Site
					{
						OFFSET 0.350399 24.744368 0.000000
					}
				}
			}
		}
		JOINT RightUpLeg
		{
			OFFSET -8.479700 -4.795502 -0.379100
			CHANNELS 3 Xrotation Yrotation Zrotation
			JOINT RightLeg
			{
				OFFSET -0.023144 -32.555092 0.112900
				CHANNELS 3 Xrotation Yrotation Zrotation
				JOINT RightFoot
				{
					OFFSET 0.023144 -32.638641 -3.012700
					CHANNELS 3 Xrotation Yrotation Zrotation
					JOINT RightToeBase
					{
						OFFSET -0.970200 -13.225400 11.864200
						CHANNELS 3 Xrotation Yrotation Zrotation
						End Site
						{
							OFFSET 0.000000 12.319244 0.000000
						}
					}
					JOINT RFootTongue
					{
						OFFSET -1.142200 -1.059800 6.665200
						CHANNELS 3 Xrotation Yrotation Zrotation
						End Site
						{
							OFFSET 0.000000 12.319243 0.000000
						}
					}
				}
				JOINT RightPantLeg
				{
					OFFSET -0.919482 -16.533978 -2.284800
					CHANNELS 3 Xrotation Yrotation Zrotation
					End Site
					{
						OFFSET -0.350400 24.744419 0.000000
					}
				}
			}
		}
	}
	JOINT Spine
	{
		OFFSET 0.000000 7.722000 1.166200
		CHANNELS 3 Xrotation Yrotation Zrotation
		JOINT Spine1
		{
			OFFSET 0.000000 12.024101 0.248800
			CHANNELS 3 Xrotation Yrotation Zrotation
			JOINT Spine2
			{
				OFFSET 0.000000 11.502998 -0.491200
				CHANNELS 3 Xrotation Yrotation Zrotation
				JOINT Neck
				{
					OFFSET 0.000000 18.430702 -3.123100
					CHANNELS 3 Xrotation Yrotation Zrotation
					JOINT Head
					{
						OFFSET 0.000000 9.051102 1.034000
						CHANNELS 3 Xrotation Yrotation Zrotation
						JOINT HairB
						{
							OFFSET 0.208400 24.786102 24.822300
							CHANNELS 3 Xrotation Yrotation Zrotation
							End Site
							{
								OFFSET 0.000000 32.263779 0.000000
							}
						}
						JOINT HairA
						{
							OFFSET -7.081100 24.428299 23.196600
							CHANNELS 3 Xrotation Yrotation Zrotation
							End Site
							{
								OFFSET 0.000000 32.263779 0.000000
							}
						}
						JOINT Hat
						{
							OFFSET 16.728800 15.048294 -15.439601
							CHANNELS 3 Xrotation Yrotation Zrotation
							End Site
							{
								OFFSET 0.000000 32.263779 0.000000
							}
						}
					}
				}
				JOINT LeftShoulder
				{
					OFFSET 6.197800 13.665199 -4.064700
					CHANNELS 3 Xrotation Yrotation Zrotation
					JOINT LeftArm
					{
						OFFSET 7.778100 -0.187103 -1.709300
						CHANNELS 3 Xrotation Yrotation Zrotation
						JOINT LeftForeArm
						{
							OFFSET 22.049376 0.000000 0.000000
							CHANNELS 3 Xrotation Yrotation Zrotation
							JOINT LeftHand
							{
								OFFSET 23.009392 0.000000 0.000000
								CHANNELS 3 Xrotation Yrotation Zrotation
								JOINT LeftHandThumb1
								{
									OFFSET 3.507191 -2.063065 3.133727
									CHANNELS 3 Xrotation Yrotation Zrotation
									JOINT LeftHandThumb2
									{
										OFFSET 3.101337 -1.790558 1.790558
										CHANNELS 3 Xrotation Yrotation Zrotation
										JOINT LeftHandThumb3
										{
											OFFSET 3.058640 -1.765907 1.765906
											CHANNELS 3 Xrotation Yrotation Zrotation
											End Site
											{
												OFFSET -0.415260 3.926476 -0.049563
											}
										}
									}
								}
								JOINT LeftHandIndex1
								{
									OFFSET 11.334419 -0.901459 3.706815
									CHANNELS 3 Xrotation Yrotation Zrotation
									JOINT LeftHandIndex2
									{
										OFFSET 3.283112 0.000000 0.000000
										CHANNELS 3 Xrotation Yrotation Zrotation
										JOINT LeftHandIndex3
										{
											OFFSET 3.323853 0.000000 0.000000
											CHANNELS 3 Xrotation Yrotation Zrotation
											End Site
											{
												OFFSET -1.135597 3.097809 0.402452
											}
										}
									}
								}
								JOINT LeftHandMiddle1
								{
									OFFSET 11.335861 0.000000 0.000000
									CHANNELS 3 Xrotation Yrotation Zrotation
									JOINT LeftHandMiddle2
									{
										OFFSET 3.410492 0.000000 0.000000
										CHANNELS 3 Xrotation Yrotation Zrotation
										JOINT LeftHandMiddle3
										{
											OFFSET 3.312172 0.000000 0.000000
											CHANNELS 3 Xrotation Yrotation Zrotation
											End Site
											{
												OFFSET -1.150200 3.080154 0.400270
											}
										}
									}
								}
								JOINT LeftHandRing1
								{
									OFFSET 11.514786 -0.013176 -3.003090
									CHANNELS 3 Xrotation Yrotation Zrotation
									JOINT LeftHandRing2
									{
										OFFSET 3.053307 0.000000 0.000000
										CHANNELS 3 Xrotation Yrotation Zrotation
										JOINT LeftHandRing3
										{
											OFFSET 3.295807 0.000000 0.000000
											CHANNELS 3 Xrotation Yrotation Zrotation
											End Site
											{
												OFFSET -1.281006 3.013344 0.375733
											}
										}
									}
								}
								JOINT LeftHandPinky1
								{
									OFFSET 10.518692 -0.960396 -5.730441
									CHANNELS 3 Xrotation Yrotation Zrotation
									JOINT LeftHandPinky2
									{
										OFFSET 2.861649 0.000000 0.000000
										CHANNELS 3 Xrotation Yrotation Zrotation
										JOINT LeftHandPinky3
										{
											OFFSET 2.863380 0.000000 0.000000
											CHANNELS 3 Xrotation Yrotation Zrotation
											End Site
											{
												OFFSET -0.843597 2.711159 0.369971
											}
										}
									}
								}
							}
							JOINT LSleeve
							{
								OFFSET 6.676277 -0.344902 -1.011730
								CHANNELS 3 Xrotation Yrotation Zrotation
								End Site
								{
									OFFSET 0.000000 14.885353 0.000000
								}
							}
						}
					}
				}
				JOINT RightShoulder
				{
					OFFSET -6.197800 13.665199 -4.064700
					CHANNELS 3 Xrotation Yrotation Zrotation
					JOINT RightArm
					{
						OFFSET -7.778100 -0.187103 -1.709300
						CHANNELS 3 Xrotation Yrotation Zrotation
						JOINT RightForeArm
						{
							OFFSET -22.049376 0.000000 0.000000
							CHANNELS 3 Xrotation Yrotation Zrotation
							JOINT RightHand
							{
								OFFSET -23.009392 0.000000 0.000000
								CHANNELS 3 Xrotation Yrotation Zrotation
								JOINT RightHandThumb1
								{
									OFFSET -3.507191 -2.063065 3.133727
									CHANNELS 3 Xrotation Yrotation Zrotation
									JOINT RightHandThumb2
									{
										OFFSET -3.101337 -1.790558 1.790558
										CHANNELS 3 Xrotation Yrotation Zrotation
										JOINT RightHandThumb3
										{
											OFFSET -3.058640 -1.765907 1.765906
											CHANNELS 3 Xrotation Yrotation Zrotation
											End Site
											{
												OFFSET 0.415260 3.926476 -0.049563
											}
										}
									}
								}
								JOINT RightHandIndex1
								{
									OFFSET -11.334419 -0.901459 3.706815
									CHANNELS 3 Xrotation Yrotation Zrotation
									JOINT RightHandIndex2
									{
										OFFSET -3.283112 0.000000 0.000000
										CHANNELS 3 Xrotation Yrotation Zrotation
										JOINT RightHandIndex3
										{
											OFFSET -3.323853 0.000000 0.000000
											CHANNELS 3 Xrotation Yrotation Zrotation
											End Site
											{
												OFFSET 1.135597 3.097809 0.402452
											}
										}
									}
								}
								JOINT RightHandMiddle1
								{
									OFFSET -11.335861 0.000000 0.000000
									CHANNELS 3 Xrotation Yrotation Zrotation
									JOINT RightHandMiddle2
									{
										OFFSET -3.410492 0.000000 0.000000
										CHANNELS 3 Xrotation Yrotation Zrotation
										JOINT RightHandMiddle3
										{
											OFFSET -3.312172 0.000000 0.000000
											CHANNELS 3 Xrotation Yrotation Zrotation
											End Site
											{
												OFFSET 1.150200 3.080154 0.400270
											}
										}
									}
								}
								JOINT RightHandRing1
								{
									OFFSET -11.514786 -0.013176 -3.003090
									CHANNELS 3 Xrotation Yrotation Zrotation
									JOINT RightHandRing2
									{
										OFFSET -3.053307 0.000000 0.000000
										CHANNELS 3 Xrotation Yrotation Zrotation
										JOINT RightHandRing3
										{
											OFFSET -3.295807 0.000000 0.000000
											CHANNELS 3 Xrotation Yrotation Zrotation
											End Site
											{
												OFFSET 1.281006 3.013344 0.375733
											}
										}
									}
								}
								JOINT RightHandPinky1
								{
									OFFSET -10.518692 -0.960396 -5.730441
									CHANNELS 3 Xrotation Yrotation Zrotation
									JOINT RightHandPinky2
									{
										OFFSET -2.861649 0.000000 0.000000
										CHANNELS 3 Xrotation Yrotation Zrotation
										JOINT RightHandPinky3
										{
											OFFSET -2.863380 0.000000 0.000000
											CHANNELS 3 Xrotation Yrotation Zrotation
											End Site
											{
												OFFSET 0.843597 2.711159 0.369971
											}
										}
									}
								}
							}
							JOINT RSleeve
							{
								OFFSET -6.676277 -0.344902 -1.011730
								CHANNELS 3 Xrotation Yrotation Zrotation
								End Site
								{
									OFFSET 0.000000 14.885353 0.000000
								}
							}
						}
					}
				}
				JOINT Backpack
				{
					OFFSET 0.000000 -2.471497 36.677502
					CHANNELS 3 Xrotation Yrotation Zrotation
					End Site
					{
						OFFSET 0.000000 20.427315 0.000000
					}
				}
				JOINT Hood
				{
					OFFSET 0.000000 18.754097 -10.431000
					CHANNELS 3 Xrotation Yrotation Zrotation
					JOINT Hood1
					{
						OFFSET 0.000000 -5.011002 -7.685901
						CHANNELS 3 Xrotation Yrotation Zrotation
						End Site
						{
							OFFSET 0.000000 9.175140 0.000000
						}
					}
				}
				JOINT LHoodieString
				{
					OFFSET 5.250500 16.397697 3.089900
					CHANNELS 3 Xrotation Yrotation Zrotation
					JOINT LHoodieString1
					{
						OFFSET 0.257700 -6.364304 3.694600
						CHANNELS 3 Xrotation Yrotation Zrotation
						JOINT LHoodieString2
						{
							OFFSET 0.000000 -9.643799 2.679100
							CHANNELS 3 Xrotation Yrotation Zrotation
							End Site
							{
								OFFSET 0.000000 10.009018 0.000000
							}
						}
					}
				}
				JOINT RHoodieString
				{
					OFFSET -5.250500 16.397697 3.089900
					CHANNELS 3 Xrotation Yrotation Zrotation
					JOINT RHoodieString1
					{
						OFFSET -0.257700 -6.364304 3.694600
						CHANNELS 3 Xrotation Yrotation Zrotation
						JOINT RHoodieString2
						{
							OFFSET 0.000000 -9.643799 2.679100
							CHANNELS 3 Xrotation Yrotation Zrotation
							End Site
							{
								OFFSET 0.000000 10.009018 0.000000
							}
						}
					}
				}
			}
			JOINT LBackpack_Strap
			{
				OFFSET 15.223200 -7.719803 -6.610900
				CHANNELS 3 Xrotation Yrotation Zrotation
				End Site
				{
					OFFSET 0.000000 16.040596 0.000000
				}
			}
			JOINT RBackpack_Strap
			{
				OFFSET -15.223000 -7.719803 -6.610900
				CHANNELS 3 Xrotation Yrotation Zrotation
				End Site
				{
					OFFSET 0.000000 16.040596 0.000000
				}
			}
		}
	}
	JOINT BoyFacialAnim_Joint
	{
		OFFSET 1.000000 -82.208099 -1.550900
		CHANNELS 3 Xrotation Yrotation Zrotation
		End Site
		{
			OFFSET 0.000000 30.012791 0.000000
		}
	}
}
MOTION
Frames: 4
Frame Time: 0.016667
54.464527 81.301041 34.054428 4.667452 68.526953 -4.744446 -0.000000 0.000002 -0.000000 -22.106442 -10.310775 0.464408 19.042984 0.820777 -7.966821 2.687817 -18.979238 6.420006 -0.000000 -0.000001 0.000000 -0.000000 -0.000001 0.000000 0.000001 0.000000 -0.000000 -0.442487 -14.269546 -0.563757 32.853770 -2.794244 -3.198234 1.328141 -12.073765 10.144527 0.000001 0.000000 0.000001 0.000001 0.000000 0.000001 -0.000005 -0.000002 0.000002 1.486040 15.620537 -1.867159 0.302475 12.349542 -1.690998 0.319025 12.258885 -2.268430 30.683792 -16.732681 8.274237 -37.265543 -69.684424 -3.375887 -0.000000 0.000000 -0.000000 -0.000000 0.000000 -0.000000 -0.000000 0.000000 -0.000000 -2.027421 -8.616115 -14.640802 564.659115 -127.569506 506.102155 0.000022 -67.460815 0.000025 -133.641530 -5.524190 50.251925 -10.936359 -6.746921 10.333072 -18.089413 8.879747 2.392686 -0.000000 -0.000001 -0.000000 5.890370 8.200091 -88.621834 6.193163 5.841106 -93.357655 -0.000000 -0.000000 -0.000000 7.765549 7.904041 -107.399486 3.749174 5.461716 -68.913494 -0.000004 -0.000001 -0.000000 7.314734 8.035617 -105.794979 3.608016 5.405429 -67.422908 -0.000002 -0.000001 -0.000001 10.390425 6.780207 -113.877121 1.172175 3.517182 -36.854041 -0.000001 0.000002 -0.000002 0.000000 -0.000002 0.000000 -8.395406 33.279865 21.038919 6.092960 31.507488 48.663455 -0.000000 48.322400 0.000018 -20.121599 -43.295312 5.646316 17.912429 17.120583 -32.483523 12.694454 -52.014220 20.210859 -0.000002 0.000001 0.000001 0.276360 -8.899015 1.740172 5.888283 -4.491853 105.344200 -0.000001 0.000000 0.000004 4.166153 -8.600807 42.153199 7.050158 -3.996508 120.947132 -0.000001 0.000000 0.000002 -0.361088 -4.549285 57.044248 4.703190 -4.656955 90.567093 -0.000003 -0.000001 0.000002 -5.324602 -0.292082 51.887311 3.524539 -4.517657 75.909261 -0.000000 -0.000002 -0.000000 -0.000000 -0.000003 0.000000 -0.000000 -0.000003 -0.000000 -0.000000 -0.000003 -0.000000 -0.000000 -0.000003 -0.000000 -0.000000 -0.000003 -0.000000 -0.000000 -0.000003 -0.000000 -0.000000 0.000001 -0.000000 -0.000000 -0.000003 -0.000000 -0.000000 -0.000003 -0.000000 -0.000000 0.000001 -0.000000 -0.000000 -0.000000 -0.000000 -0.000000 -0.000000 -0.000000 -0.000000 0.000002 -0.000000 
54.182083 81.268646 33.893917 4.336345 67.333098 -4.409308 -0.000000 0.000000 -0.000000 -22.238413 -10.144558 0.679387 19.240375 1.645709 -8.020844 2.684590 -18.844193 6.340551 -0.000000 -0.000003 0.000000 -0.000000 -0.000003 -0.000000 0.000000 0.000005 -0.000000 -0.175324 -12.604237 -0.953143 31.972259 -3.270702 -3.058507 0.324543 -14.855079 9.745899 0.000003 0.000002 0.000000 0.000003 0.000002 0.000000 0.000002 0.000003 0.000000 1.490566 15.298487 -1.787042 0.343533 12.111554 -1.597175 0.355242 12.030031 -2.142364 30.067719 -16.587188 7.620743 -36.544442 -68.821847 -2.824785 -0.000000 0.000000 0.000000 -0.000000 0.000000 0.000000 -0.000000 0.000000 0.000000 -1.967086 -8.442193 -14.580907 563.731630 -126.918329 505.300673 -0.000044 -66.037329 -0.000048 -133.517002 -3.963450 49.001816 -10.936444 -6.746923 10.333392 -18.089413 8.879750 2.392684 0.000000 -0.000001 0.000001 5.890374 8.200080 -88.621834 6.193161 5.841086 -93.357635 -0.000001 -0.000002 -0.000006 7.765546 7.904041 -107.399520 3.753037 5.463206 -68.954079 -0.000000 0.000000 0.000004 7.314733 8.035620 -105.794993 3.608016 5.405428 -67.422901 0.000003 -0.000001 -0.000001 10.390431 6.780210 -113.877149 1.175914 3.522171 -36.915137 -0.000004 -0.000002 0.000001 0.000001 0.000000 0.000005 -8.428599 32.859057 21.486424 5.768043 31.090970 48.692029 -0.000011 48.134406 0.000011 -19.465013 -44.389413 4.704345 17.912437 17.120578 -32.483570 12.694448 -52.014216 20.210852 0.000001 -0.000002 0.000001 0.276353 -8.899007 1.740151 5.888286 -4.491853 105.344200 -0.000001 0.000000 0.000002 4.166150 -8.600809 42.153192 7.050155 -3.996511 120.947132 -0.000001 0.000001 -0.000002 -0.361095 -4.549277 57.044207 4.703190 -4.656954 90.567093 -0.000001 -0.000001 0.000000 -5.324613 -0.292067 51.887291 3.524535 -4.517654 75.909261 0.000004 -0.000002 -0.000000 -0.000000 -0.000002 -0.000000 0.000000 0.000002 -0.000000 0.000000 0.000002 -0.000000 0.000000 0.000002 -0.000000 0.000000 0.000002 -0.000000 0.000000 0.000002 0.000000 -0.000000 0.000002 0.000000 0.000000 0.000002 -0.000000 0.000000 0.000002 0.000000 -0.000000 0.000002 0.000000 -0.000000 -0.000000 0.000000 -0.000000 -0.000000 0.000000 -0.000000 0.000000 -0.000000 
53.866356 81.257156 33.739681 4.068278 66.054213 -4.190261 0.000000 0.000000 -0.000000 -22.323176 -9.936160 1.012213 19.332272 2.532896 -8.069122 2.741310 -18.759203 6.236106 -0.000000 -0.000004 0.000000 -0.000000 -0.000004 0.000000 -0.000000 0.000004 -0.000001 0.827642 -11.443924 -1.161650 30.010782 -1.840835 -3.036892 -0.130306 -19.777079 9.284837 0.000003 0.000001 -0.000003 0.000003 0.000001 -0.000003 -0.000002 0.000001 -0.000001 1.455058 14.974298 -1.680050 0.349807 11.848944 -1.478821 0.356715 11.776920 -1.992125 29.489342 -16.410161 6.935817 -35.776340 -67.919811 -2.237545 -0.000001 0.000000 -0.000000 -0.000001 0.000000 -0.000000 -0.000001 0.000000 -0.000000 -1.896977 -8.276097 -14.474762 562.789501 -126.168388 504.520666 0.000019 -64.514374 0.000020 -133.165917 -2.289628 47.769305 -10.936564 -6.746916 10.333448 -18.089416 8.879746 2.392685 0.000000 -0.000001 -0.000001 5.890371 8.200100 -88.621827 6.193161 5.841109 -93.357635 -0.000001 -0.000001 -0.000002 7.765553 7.904054 -107.399486 3.758025 5.465092 -69.006323 -0.000002 0.000001 0.000002 7.314744 8.035637 -105.795006 3.608006 5.405432 -67.422908 -0.000001 0.000000 -0.000002 10.390431 6.780226 -113.877121 1.180779 3.528591 -36.993787 -0.000001 0.000003 -0.000003 -0.000002 0.000001 0.000003 -8.483176 32.397804 22.014842 5.554003 30.650368 48.597797 -0.000003 48.025492 -0.000009 -19.267264 -45.436290 3.569785 17.912427 17.120588 -32.483546 12.694446 -52.014223 20.210856 0.000003 -0.000000 -0.000001 0.276354 -8.899006 1.740149 5.888286 -4.491853 105.344200 -0.000000 0.000002 0.000002 4.166140 -8.600802 42.153192 7.050158 -3.996511 120.947118 -0.000000 -0.000000 -0.000002 -0.361099 -4.549280 57.044248 4.703188 -4.656954 90.567093 -0.000003 -0.000001 -0.000002 -5.324614 -0.292067 51.887308 3.524536 -4.517661 75.909261 0.000001 -0.000001 -0.000002 0.000001 -0.000002 0.000001 -0.000000 -0.000001 -0.000000 -0.000000 -0.000001 -0.000000 -0.000000 -0.000001 -0.000000 -0.000000 -0.000001 -0.000000 -0.000000 -0.000001 -0.000000 -0.000000 -0.000001 -0.000000 -0.000000 -0.000001 -0.000000 -0.000000 -0.000001 -0.000000 -0.000000 -0.000001 -0.000000 0.000000 0.000000 0.000000 0.000000 0.000000 0.000000 0.000000 0.000000 -0.000000 
53.535568 81.247772 33.585903 3.850817 64.843309 -3.933421 -0.000000 -0.000000 -0.000000 -22.371101 -9.736984 1.247062 19.280420 3.459555 -8.086548 2.890079 -18.721613 6.116625 -0.000000 -0.000002 0.000000 -0.000000 -0.000002 0.000000 0.000000 -0.000003 0.000000 1.804206 -11.166179 -1.477923 27.775927 0.175685 -3.161926 -0.258528 -24.965433 8.717494 0.000002 0.000001 -0.000002 0.000002 0.000001 -0.000002 0.000000 -0.000001 0.000002 1.453803 14.613337 -1.671180 0.371862 11.541077 -1.378603 0.372755 11.478289 -1.856315 28.899306 -16.213875 6.271612 -35.170679 -67.009661 -1.806530 -0.000000 -0.000000 -0.000000 -0.000000 -0.000000 -0.000000 -0.000000 -0.000000 -0.000000 -1.822195 -8.117078 -14.348528 561.935728 -125.327838 503.893436 -0.000006 -62.965076 -0.000008 -132.533086 -0.580729 46.575641 -10.936735 -6.746924 10.333232 -18.089413 8.879747 2.392685 -0.000001 -0.000001 0.000000 5.890364 8.200088 -88.621821 6.193154 5.841106 -93.357628 -0.000001 0.000001 0.000002 7.765537 7.904054 -107.399493 3.763896 5.467368 -69.068020 0.000000 0.000000 0.000002 7.314742 8.035622 -105.794999 3.608015 5.405426 -67.422887 -0.000003 -0.000001 -0.000004 10.390435 6.780208 -113.877114 1.186485 3.536166 -37.086681 -0.000006 0.000000 -0.000002 -0.000001 -0.000001 0.000003 -8.552615 31.896891 22.612282 5.447660 30.142513 48.410851 -0.000006 48.027606 0.000001 -19.755373 -46.276120 2.025980 17.912437 17.120581 -32.483563 12.694448 -52.014220 20.210852 0.000004 0.000003 0.000002 0.276344 -8.899008 1.740153 5.888287 -4.491853 105.344200 -0.000000 -0.000001 0.000002 4.166152 -8.600809 42.153209 7.050157 -3.996510 120.947132 -0.000002 -0.000003 -0.000001 -0.361101 -4.549279 57.044220 4.703187 -4.656951 90.567093 -0.000003 -0.000001 0.000000 -5.324619 -0.292072 51.887308 3.524532 -4.517651 75.909254 -0.000001 -0.000002 0.000002 -0.000001 0.000003 0.000001 0.000000 -0.000001 0.000000 0.000000 -0.000001 0.000000 0.000000 -0.000001 0.000000 0.000000 -0.000001 0.000000 0.000000 -0.000001 0.000000 -0.000000 -0.000001 -0.000000 0.000000 -0.000001 0.000000 0.000000 -0.000001 0.000000 -0.000000 -0.000001 -0.000000 -0.000000 0.000000 0.000000 -0.000000 0.000000 0.000000 -0.000000 -0.000000 -0.000000 
